:FULLY-SPECIFIED
:FORCE-ALL-JOINTS-BE-3DOF
:DEGREES
68
root 6.04396 16.7458 -27.9713 10.4032 3.47536 -3.73966
lfemur -32.7512 10.8886 -16.6554
ltibia 49.1557 0 0
lfoot -22.0806 -9.96042 0
ltoes 30.6503 0 0
rfemur -17.0255 -2.63055 21.049
rtibia 32.243 0 0
rfoot -27.0579 -15.5641 0
rtoes -9.08654 0 0
lowerback -3.70305 2.40294 3.05045
upperback -1.52772 3.1053 -0.0594592
thorax 0.661091 1.54788 -1.6416
lowerneck -9.83411 -2.66114 2.17598
upperneck -4.93736 -3.7075 2.01517
head 0.0808438 -1.86176 0.15125
lclavicle -3.55909e-15 -1.14205e-14 0
lhumerus -41.2922 -12.3094 94.1241
lradius 44.2255 0 0
lwrist 8.40933 0 0
lhand -9.15036 2.80623 0
lfingers 7.12502 0 0
lthumb 16.7979 32.0508 0
rclavicle -3.55909e-15 -1.14205e-14 0
rhumerus -40.0519 0.410863 -90.2813
rradius 43.3794 0 0
rwrist 6.13161 0 0
rhand -23.5643 -20.721 0
rfingers 7.12502 0 0
rthumb 2.89757 -50.6567 0
69
root 6.07777 16.7404 -27.9332 10.2964 3.65323 -3.84018
lfemur -32.7881 10.2953 -16.238
ltibia 48.9158 0 0
lfoot -21.9379 -9.46965 0
ltoes 29.8572 0 0
rfemur -16.9279 -3.06059 20.9814
rtibia 32.5423 0 0
rfoot -26.9947 -15.1511 0
rtoes -9.49937 0 0
lowerback -3.64845 2.43965 3.04659
upperback -1.55485 3.15715 0.00487113
thorax 0.6003 1.57316 -1.5756
lowerneck -9.83367 -2.73984 2.20378
upperneck -4.86563 -3.8163 1.97988
head 0.101134 -1.91571 0.131772
lclavicle -3.90315e-15 -1.12795e-14 0
lhumerus -41.4648 -12.0672 94.035
lradius 44.3136 0 0
lwrist 8.57401 0 0
lhand -8.79051 2.85872 0
lfingers 7.12502 0 0
lthumb 17.1436 32.0659 0
rclavicle -3.90315e-15 -1.12795e-14 0
rhumerus -40.0891 0.383717 -89.92
rradius 43.6256 0 0
rwrist 5.92689 0 0
rhand -23.2737 -20.4502 0
rfingers 7.12502 0 0
rthumb 3.1782 -50.378 0
70
root 6.11158 16.735 -27.8952 10.1896 3.83109 -3.94071
lfemur -32.8249 9.70204 -15.8206
ltibia 48.6758 0 0
lfoot -21.7952 -8.97887 0
ltoes 29.0642 0 0
rfemur -16.8304 -3.49064 20.9138
rtibia 32.8417 0 0
rfoot -26.9315 -14.7382 0
rtoes -9.9122 0 0
lowerback -3.59385 2.47637 3.04272
upperback -1.58198 3.20901 0.0692015
thorax 0.539509 1.59844 -1.5096
lowerneck -9.83323 -2.81855 2.23157
upperneck -4.7939 -3.9251 1.94459
head 0.121424 -1.96966 0.112295
lclavicle -4.24722e-15 -1.11384e-14 0
lhumerus -41.6374 -11.825 93.946
lradius 44.4017 0 0
lwrist 8.73869 0 0
lhand -8.43066 2.91122 0
lfingers 7.12502 0 0
lthumb 17.4894 32.081 0
rclavicle -4.24722e-15 -1.11384e-14 0
rhumerus -40.1264 0.356571 -89.5587
rradius 43.8718 0 0
rwrist 5.72216 0 0
rhand -22.983 -20.1794 0
rfingers 7.12502 0 0
rthumb 3.45883 -50.0994 0
71
root 6.14539 16.7297 -27.8571 10.0828 4.00896 -4.04124
lfemur -32.8617 9.10876 -15.4032
ltibia 48.4358 0 0
lfoot -21.6525 -8.4881 0
ltoes 28.2711 0 0
rfemur -16.7328 -3.92068 20.8462
rtibia 33.141 0 0
rfoot -26.8684 -14.3253 0
rtoes -10.325 0 0
lowerback -3.53924 2.51308 3.03885
upperback -1.6091 3.26087 0.133532
thorax 0.478718 1.62372 -1.4436
lowerneck -9.83278 -2.89725 2.25936
upperneck -4.72216 -4.03389 1.90931
head 0.141714 -2.02361 0.0928171
lclavicle -4.59129e-15 -1.09973e-14 0
lhumerus -41.81 -11.5828 93.8569
lradius 44.4899 0 0
lwrist 8.90338 0 0
lhand -8.07082 2.96371 0
lfingers 7.12502 0 0
lthumb 17.8351 32.0961 0
rclavicle -4.59129e-15 -1.09973e-14 0
rhumerus -40.1636 0.329425 -89.1973
rradius 44.1181 0 0
rwrist 5.51743 0 0
rhand -22.6923 -19.9086 0
rfingers 7.12502 0 0
rthumb 3.73947 -49.8208 0
72
root 6.1792 16.7243 -27.819 9.976 4.18683 -4.14176
lfemur -32.8985 8.51548 -14.9858
ltibia 48.1959 0 0
lfoot -21.5098 -7.99732 0
ltoes 27.4781 0 0
rfemur -16.6353 -4.35073 20.7786
rtibia 33.4404 0 0
rfoot -26.8052 -13.9124 0
rtoes -10.7379 0 0
lowerback -3.48464 2.5498 3.03498
upperback -1.63623 3.31273 0.197862
thorax 0.417927 1.649 -1.37761
lowerneck -9.83234 -2.97595 2.28715
upperneck -4.65043 -4.14269 1.87402
head 0.162004 -2.07756 0.0733396
lclavicle -4.93535e-15 -1.08562e-14 0
lhumerus -41.9826 -11.3406 93.7678
lradius 44.578 0 0
lwrist 9.06806 0 0
lhand -7.71097 3.0162 0
lfingers 7.12502 0 0
lthumb 18.1809 32.1112 0
rclavicle -4.93535e-15 -1.08562e-14 0
rhumerus -40.2009 0.302279 -88.836
rradius 44.3643 0 0
rwrist 5.31271 0 0
rhand -22.4016 -19.6378 0
rfingers 7.12502 0 0
rthumb 4.0201 -49.5422 0
73
root 6.21301 16.7189 -27.781 9.86919 4.36469 -4.24229
lfemur -32.9353 7.9222 -14.5684
ltibia 47.9559 0 0
lfoot -21.3671 -7.50655 0
ltoes 26.685 0 0
rfemur -16.5377 -4.78077 20.711
rtibia 33.7397 0 0
rfoot -26.7421 -13.4994 0
rtoes -11.1507 0 0
lowerback -3.43004 2.58651 3.03112
upperback -1.66335 3.36458 0.262193
thorax 0.357136 1.67427 -1.31161
lowerneck -9.8319 -3.05465 2.31494
upperneck -4.5787 -4.25149 1.83874
head 0.182293 -2.13151 0.0538622
lclavicle -5.27942e-15 -1.07152e-14 0
lhumerus -42.1552 -11.0984 93.6787
lradius 44.6661 0 0
lwrist 9.23275 0 0
lhand -7.35112 3.0687 0
lfingers 7.12502 0 0
lthumb 18.5266 32.1263 0
rclavicle -5.27942e-15 -1.07152e-14 0
rhumerus -40.2381 0.275133 -88.4747
rradius 44.6105 0 0
rwrist 5.10798 0 0
rhand -22.1109 -19.3669 0
rfingers 7.12502 0 0
rthumb 4.30073 -49.2636 0
74
root 6.24682 16.7136 -27.7429 9.76238 4.54256 -4.34281
lfemur -32.9721 7.32892 -14.1511
ltibia 47.716 0 0
lfoot -21.2244 -7.01577 0
ltoes 25.892 0 0
rfemur -16.4402 -5.21081 20.6434
rtibia 34.0391 0 0
rfoot -26.6789 -13.0865 0
rtoes -11.5635 0 0
lowerback -3.37544 2.62323 3.02725
upperback -1.69048 3.41644 0.326523
thorax 0.296345 1.69955 -1.24561
lowerneck -9.83146 -3.13335 2.34273
upperneck -4.50696 -4.36028 1.80345
head 0.202583 -2.18546 0.0343847
lclavicle -5.62348e-15 -1.05741e-14 0
lhumerus -42.3278 -10.8562 93.5896
lradius 44.7542 0 0
lwrist 9.39743 0 0
lhand -6.99127 3.12119 0
lfingers 7.12502 0 0
lthumb 18.8724 32.1414 0
rclavicle -5.62348e-15 -1.05741e-14 0
rhumerus -40.2754 0.247987 -88.1134
rradius 44.8568 0 0
rwrist 4.90326 0 0
rhand -21.8202 -19.0961 0
rfingers 7.12502 0 0
rthumb 4.58136 -48.985 0
